<svg xmlns="http://www.w3.org/2000/svg" width="461.261" height="536" viewBox="0 0 461.261 536">
  <g id="Group_115" data-name="Group 115" transform="translate(-1250.739 -5100)">
    <g id="contactus" transform="translate(1197.789 5068.667)">
      <g id="freepik--Floor--inject-279" transform="translate(52.95 305.301)">
        <ellipse id="Ellipse_17" data-name="Ellipse 17" cx="230.631" cy="131.016" rx="230.631" ry="131.016" fill="#f5f5f5"/>
      </g>
      <g id="freepik--Shadows--inject-279" transform="translate(80.431 385.392)">
        <path id="Path_991" data-name="Path 991" d="M357.792,466.848l-172.157-99.4a9.949,9.949,0,0,1,0-17.24L202.618,339.5a19.312,19.312,0,0,1,19.277,0l172.18,99.415a9.949,9.949,0,0,1,0,17.24l-16.983,10.7A19.265,19.265,0,0,1,357.792,466.848Z" transform="translate(-58.669 -333.315)" fill="#e0e0e0"/>
        <ellipse id="Ellipse_18" data-name="Ellipse 18" cx="37.36" cy="21.454" rx="37.36" ry="21.454" fill="#e6e6e6"/>
      </g>
      <g id="freepik--Plants--inject-279" transform="translate(434.041 343.452)">
        <path id="Path_992" data-name="Path 992" d="M385.115,387.77l16.386,9.422s-8.368-26.3-3.909-52.809c1.685-10.019,5.3-14.993,6.566-17.673s11.06-19.242,2.341-26.826-29,7.666-27.9,48.479a158.277,158.277,0,0,0,6.519,39.408Z" transform="translate(-378.553 -298.006)" fill="#2b5eeb"/>
        <path id="Path_993" data-name="Path 993" d="M385.115,387.77l16.386,9.422s-8.368-26.3-3.909-52.809c1.685-10.019,5.3-14.993,6.566-17.673s11.06-19.242,2.341-26.826-29,7.666-27.9,48.479a158.277,158.277,0,0,0,6.519,39.408Z" transform="translate(-378.553 -298.006)" opacity="0.5"/>
        <path id="Path_994" data-name="Path 994" d="M391.642,391.741a.574.574,0,0,1-.55-.375c-.059-.176-6.32-17.287-6.121-44.792s14.654-42.439,14.794-42.58a.588.588,0,1,1,.831.831c-.14.14-14.256,14.63-14.455,41.76s5.981,44.218,6.051,44.382a.585.585,0,0,1-.351.749A.55.55,0,0,1,391.642,391.741Z" transform="translate(-377.46 -297.015)" fill="#fff"/>
        <path id="Path_995" data-name="Path 995" d="M390.988,387.535l22.4,12.875a10.779,10.779,0,0,0,14.3-3.078,11.7,11.7,0,0,0,1.767-7.783c-1.077-11.634-6.133-14.314.058-19.5s7.807-5.548,7.456-10.534-3.757-7.163-5.372-9.129-6.086-6.086-3.043-12.172,7.2-11.973.9-14.665c-3.757-1.615-10.019.538-14.139,5.009s-7.514,7.69-11.458,8.766-12.161,1.252-11.81,8.052,2.154,9.129.538,12.161C389.549,363.2,376.311,366.42,390.988,387.535Z" transform="translate(-377.591 -293.745)" fill="#2b5eeb"/>
        <path id="Path_996" data-name="Path 996" d="M399.565,393.957a.609.609,0,0,1-.585-.538c0-.4-3.441-40.567,24.181-67.3a.585.585,0,0,1,.808.843c-27.224,26.346-23.853,65.953-23.818,66.351a.585.585,0,0,1-.527.632Z" transform="translate(-375.096 -293.238)" fill="#fff"/>
        <path id="Path_997" data-name="Path 997" d="M404.6,357.094a.585.585,0,0,1-.585-.538,22.987,22.987,0,0,0-8.462-16.07.585.585,0,0,1-.14-.819.574.574,0,0,1,.808-.14,23.841,23.841,0,0,1,8.965,16.959.6.6,0,0,1-.538.644Z" transform="translate(-375.698 -290.949)" fill="#fff"/>
        <path id="Path_998" data-name="Path 998" d="M401.705,361.465a.585.585,0,0,1-.386-.14.6.6,0,0,1-.059-.831c.281-.328,7.2-7.959,23.408-5.934a.585.585,0,0,1,.5.655.6.6,0,0,1-.655.515c-15.567-1.955-22.32,5.466-22.39,5.536a.6.6,0,0,1-.421.2Z" transform="translate(-374.708 -288.427)" fill="#fff"/>
      </g>
      <g id="freepik--Device--inject-279" transform="translate(203.559 31.334)">
        <path id="Path_999" data-name="Path 999" d="M352.382,505.562,200.977,418.144c-10.686-6.168-19.347-22.718-19.347-36.962V56.977c0-14.244,8.661-20.787,19.347-14.619l151.405,87.418c10.686,6.168,19.347,22.718,19.347,36.962V490.944C371.729,505.176,363.068,511.73,352.382,505.562Z" transform="translate(-181.63 -29.85)" fill="#455a64"/>
        <path id="Path_1000" data-name="Path 1000" d="M368.865,121.065,217.448,33.647c-4.565-2.633-8.755-2.938-12.067-1.323h0a9.89,9.89,0,0,0-1.17.691L187.24,42.881c3.418-2.048,7.889-1.9,12.793.936l151.405,87.418c10.686,6.168,19.347,22.718,19.347,36.962V492.4c0,7.537-2.423,12.875-6.285,15.4l16.749-9.75h0c4.272-2.271,7.023-7.83,7.023-15.8V158.05C388.271,143.783,379.551,127.233,368.865,121.065Z" transform="translate(-180.674 -31.334)" fill="#37474f"/>
        <path id="Path_1001" data-name="Path 1001" d="M344.965,149.748V473.953c0,7.537-2.423,12.875-6.285,15.4l16.76-9.75h0c4.272-2.271,7.023-7.83,7.023-15.8V139.6l-17.439,10.124Z" transform="translate(-154.866 -12.883)" fill="#263238"/>
        <path id="Path_1002" data-name="Path 1002" d="M361.489,161.09,344.05,171.156v7.865l17.439-10.077Z" transform="translate(-153.951 -9.221)" fill="#37474f"/>
        <path id="Path_1003" data-name="Path 1003" d="M352.831,209.389h0c-1.557.9-2.821-.059-2.821-2.13V190.346a6.765,6.765,0,0,1,2.821-5.4h0c1.557-.9,2.821,0,2.821,2.13v16.913A6.765,6.765,0,0,1,352.831,209.389Z" transform="translate(-152.935 -5.214)" fill="#37474f"/>
        <path id="Path_1004" data-name="Path 1004" d="M350.319,207.464V190.5a6.765,6.765,0,0,1,2.821-5.4,1.8,1.8,0,0,1,1.779-.164h0l-2.118-1.088h0a1.826,1.826,0,0,0-1.826.14,6.789,6.789,0,0,0-2.832,5.4v16.9a2.54,2.54,0,0,0,.96,2.259h0l2.212,1.17h0a2.434,2.434,0,0,1-.995-2.259Z" transform="translate(-153.256 -5.372)" fill="#455a64"/>
        <path id="Path_1005" data-name="Path 1005" d="M352.831,244.359h0c-1.557.9-2.821,0-2.821-2.13V225.316a6.777,6.777,0,0,1,2.821-5.4h0c1.557-.9,2.821,0,2.821,2.142v16.9A6.742,6.742,0,0,1,352.831,244.359Z" transform="translate(-152.935 0.746)" fill="#37474f"/>
        <path id="Path_1006" data-name="Path 1006" d="M350.319,242.39V225.477a6.776,6.776,0,0,1,2.821-5.4,1.837,1.837,0,0,1,1.779-.164h0l-2.118-1.1h0a1.767,1.767,0,0,0-1.826.14,6.753,6.753,0,0,0-2.832,5.4V241.3a2.528,2.528,0,0,0,.96,2.259h0l2.212,1.17h0a2.423,2.423,0,0,1-.995-2.341Z" transform="translate(-153.256 0.585)" fill="#455a64"/>
        <path id="Path_1007" data-name="Path 1007" d="M345.56,137.072,196.776,51.14a4.108,4.108,0,0,0-6.156,3.511V379.383c0,10.838,7.69,24.146,17.076,29.565l145.132,83.837a4.53,4.53,0,0,0,6.788-3.921V161.451C359.675,152.509,353.331,141.543,345.56,137.072Z" transform="translate(-180.098 -28.051)" fill="#2b5eeb"/>
        <path id="Path_1008" data-name="Path 1008" d="M345.56,137.072,196.776,51.14a4.108,4.108,0,0,0-6.156,3.511V379.383c0,10.838,7.69,24.146,17.076,29.565l145.132,83.837a4.53,4.53,0,0,0,6.788-3.921V161.451C359.675,152.509,353.331,141.543,345.56,137.072Z" transform="translate(-180.098 -28.051)" fill="#fff" opacity="0.9"/>
        <path id="Path_1009" data-name="Path 1009" d="M233.9,70.23l2.306,9.7,49.321,28.441,8.521-4.541Z" transform="translate(-172.722 -24.705)" fill="#455a64"/>
        <path id="Path_1010" data-name="Path 1010" d="M247.021,78.926c0,1.615-1.17,2.259-2.528,1.463A5.6,5.6,0,0,1,242,76.012c0-1.6,1.17-2.259,2.528-1.451A5.571,5.571,0,0,1,247.021,78.926Z" transform="translate(-171.342 -24.026)" fill="#263238"/>
        <path id="Path_1011" data-name="Path 1011" d="M278.573,98.292a1.65,1.65,0,0,1-.772-.2L252.614,84.048a1.58,1.58,0,0,1,1.533-2.762l25.2,14.045a1.58,1.58,0,0,1-.772,2.961Z" transform="translate(-169.666 -22.852)" fill="#263238"/>
        <path id="Path_1012" data-name="Path 1012" d="M218.3,109.556c-1.533-.89-2.645-.117-2.645,1.838a5.934,5.934,0,0,0,2.645,4.939,2.786,2.786,0,0,0,2.891,0l2.446,4.424a5.3,5.3,0,0,1-5.559-.269,14.174,14.174,0,0,1-6.765-11.517c0-4.342,2.914-5.852,6.929-3.511a15.847,15.847,0,0,1,5.4,5.852l-2.446,1.943a8.626,8.626,0,0,0-2.891-3.7Z" transform="translate(-176.572 -18.888)" fill="#2b5eeb"/>
        <path id="Path_1013" data-name="Path 1013" d="M235.915,123.2c0,4.377-2.961,5.852-7.022,3.511A14.455,14.455,0,0,1,221.87,115c0-4.377,2.961-5.852,7.022-3.511A14.373,14.373,0,0,1,235.915,123.2Zm-9.7-5.583a6.344,6.344,0,0,0,2.739,5.091c1.451.843,2.622,0,2.622-1.99a6.121,6.121,0,0,0-2.622-5c-1.475-.854-2.739-.129-2.739,1.9Z" transform="translate(-174.772 -17.862)" fill="#2b5eeb"/>
        <path id="Path_1014" data-name="Path 1014" d="M238.411,117.657l5.056,10.534v-7.584l3.827,2.212v14.759l-3.511-2.037-5.033-10.44v7.537l-3.851-2.224V115.62Z" transform="translate(-172.552 -16.97)" fill="#2b5eeb"/>
        <path id="Path_1015" data-name="Path 1015" d="M257.855,128.876v3.862l-3.652-2.107V141.54l-4.225-2.446V128.186l-3.628-2.1V122.24Z" transform="translate(-170.601 -15.842)" fill="#2b5eeb"/>
        <path id="Path_1016" data-name="Path 1016" d="M264.645,145.025l-4.8-2.774-.655,1.709-4.331-2.5,5.4-11.646,4.342,2.5,5.2,17.767-4.506-2.6Zm-1.042-4.1-1.311-5.044-1.346,3.511Z" transform="translate(-169.15 -14.551)" fill="#2b5eeb"/>
        <path id="Path_1017" data-name="Path 1017" d="M274.367,141.926c-1.533-.878-2.645-.117-2.645,1.849a5.957,5.957,0,0,0,2.645,4.939,2.832,2.832,0,0,0,2.9,0l2.446,4.424a5.372,5.372,0,0,1-5.571-.269,14.174,14.174,0,0,1-6.765-11.529c0-4.342,2.926-5.852,6.929-3.511a16.1,16.1,0,0,1,5.407,5.852l-2.446,1.931A8.813,8.813,0,0,0,274.367,141.926Z" transform="translate(-167.017 -13.372)" fill="#2b5eeb"/>
        <path id="Path_1018" data-name="Path 1018" d="M289.455,147.123v3.851l-3.652-2.107V159.81l-4.225-2.446V146.456l-3.628-2.1V140.51Z" transform="translate(-165.215 -12.728)" fill="#2b5eeb"/>
        <path id="Path_1019" data-name="Path 1019" d="M299.353,163.75c1.042.6,1.838.129,1.838-1.334v-8.509l4.237,2.434v8.509c0,3.921-2.341,5.091-6.086,2.949a12.055,12.055,0,0,1-6.191-10.03V149.26l4.237,2.446v8.509a4.342,4.342,0,0,0,1.966,3.535Z" transform="translate(-162.625 -11.237)" fill="#2b5eeb"/>
        <path id="Path_1020" data-name="Path 1020" d="M310.336,162.349c-.48-.269-.784-.281-.784.164,0,1.849,6.613,4.518,6.613,9.867,0,3.277-2.493,3.289-5.372,1.627a21.384,21.384,0,0,1-6.4-6.051l1.568-2.762a18.82,18.82,0,0,0,4.869,5.1c.62.363,1.018.363,1.018-.164,0-1.919-6.625-4.471-6.625-9.656,0-2.949,2.154-3.511,5.478-1.639a20.389,20.389,0,0,1,5.559,4.951l-1.533,2.832a23.045,23.045,0,0,0-4.389-4.272Z" transform="translate(-160.71 -9.789)" fill="#2b5eeb"/>
      </g>
      <g id="freepik--speech-bubble--inject-279" transform="translate(170.609 145.679)">
        <path id="Path_1021" data-name="Path 1021" d="M206.863,178.082a30.068,30.068,0,1,0-7.889,6.824l14.654,6.367Z" transform="translate(-153.477 -129.03)" fill="#2b5eeb"/>
        <path id="Path_1022" data-name="Path 1022" d="M206.863,178.082a30.068,30.068,0,1,0-7.889,6.824l14.654,6.367Z" transform="translate(-153.477 -129.03)" opacity="0.4"/>
        <path id="Path_1023" data-name="Path 1023" d="M170.565,153.971c0-.456-.328-.714-.925-.714a6.7,6.7,0,0,0-3.7,1.744l-1.662-3.23a10.627,10.627,0,0,1,6.051-2.13c2.809,0,4.939,1.475,4.939,3.675,0,1.568-1.17,3.078-2.669,4.588l-2.1,2.072h4.951v3.441H164.818V160.6l4.74-4.9a3.2,3.2,0,0,0,1.007-1.721Z" transform="translate(-151.636 -125.517)" fill="#fff"/>
        <path id="Path_1024" data-name="Path 1024" d="M182.351,149.81l-3.23,7.748h1.323v-2.61h4.073v2.61h1.545v3.2h-1.545v2.633h-4.073v-2.633H174.65v-2.9l3.511-8.041Z" transform="translate(-149.869 -125.488)" fill="#fff"/>
        <path id="Path_1025" data-name="Path 1025" d="M196.793,156.746V163.5h-4.354V158a1.264,1.264,0,0,0-1.252-1.44c-.854,0-1.393.667-1.393,1.7V163.5H185.44V149.15h4.354v5.279a3.8,3.8,0,0,1,7,2.317Z" transform="translate(-148.03 -125.601)" fill="#fff"/>
      </g>
      <g id="freepik--Character--inject-279" transform="translate(186.808 192.164)">
        <path id="Path_1026" data-name="Path 1026" d="M334.2,260.461V405.885a9.363,9.363,0,0,1-14.045,8.123l-78.324-45.225-13.881-8.006A31.543,31.543,0,0,1,212.2,333.541V188.105a9.363,9.363,0,0,1,14.045-8.123l92.229,53.242a31.449,31.449,0,0,1,15.73,27.236Z" transform="translate(-159.669 -167.046)" fill="#2b5eeb"/>
        <path id="Path_1027" data-name="Path 1027" d="M334.2,260.461V405.885a9.363,9.363,0,0,1-14.045,8.123l-78.324-45.225-13.881-8.006A31.543,31.543,0,0,1,212.2,333.541V188.105a9.363,9.363,0,0,1,14.045-8.123l92.229,53.242a31.449,31.449,0,0,1,15.73,27.236Z" transform="translate(-159.669 -167.046)" fill="#fff" opacity="0.5"/>
        <path id="Path_1028" data-name="Path 1028" d="M284.775,322.08s14.665,24.321,4.073,51.744L237.49,344.353Z" transform="translate(-155.36 -142.616)" fill="#263238"/>
        <circle id="Ellipse_19" data-name="Ellipse 19" cx="16.444" cy="16.444" r="16.444" transform="translate(118.152 82.494) rotate(-82.98)" fill="#263238"/>
        <path id="Path_1029" data-name="Path 1029" d="M284,188.7s5.044-8.193,6.589-7.6-1.007,8.4-1.007,8.4,7.631,1.592,6.215,3.511-10.744,1.463-10.744,1.463Z" transform="translate(-147.434 -166.646)" fill="#263238"/>
        <path id="Path_1030" data-name="Path 1030" d="M298.245,211.591c-3.511,26.381-25.749,26.381-25.749,26.381l-46.583-20.506s-3.511-3.078-4.588-10.148a30.911,30.911,0,0,1,0-8.731v-.082c1.486-11.1,9.785-23.022,27.856-26.686a59.212,59.212,0,0,1,12.032-1.17,54.8,54.8,0,0,1,5.852.293c14.045,1.381,23.888,7.935,28.582,18.13a32.773,32.773,0,0,1,2.341,7.2,45.436,45.436,0,0,1,.258,15.321Z" transform="translate(-158.167 -168.423)" fill="#263238"/>
        <path id="Path_1031" data-name="Path 1031" d="M194.785,249.23s-16.538-.573-22.905,15.543c0,0,7.023,4.74,16.234,0S194.785,249.23,194.785,249.23Z" transform="translate(-166.541 -155.032)" fill="#2b5eeb"/>
        <path id="Path_1032" data-name="Path 1032" d="M194.785,249.23s-16.538-.573-22.905,15.543c0,0,7.023,4.74,16.234,0S194.785,249.23,194.785,249.23Z" transform="translate(-166.541 -155.032)" opacity="0.5"/>
        <path id="Path_1033" data-name="Path 1033" d="M195.094,259.522s-4.682-20.342-7.151-20.588-2.949,6.2-2.75,9.843l-5.852-12.594a3.172,3.172,0,0,0-4.4-1.416c-5.852,3.219-16.117,13,5.524,37.2Z" transform="translate(-167.318 -157.563)" fill="#945959"/>
        <path id="Path_1034" data-name="Path 1034" d="M254.251,243.932l-3.511-.456a20.108,20.108,0,0,0-18.727,7.865L211.121,279.15,194.735,250.24s-1.966,19.663-22.905,15.543l22.484,37.84a17.3,17.3,0,0,0,28.3,2.072l19.242-23.654Z" transform="translate(-166.549 -156.042)" fill="#2b5eeb"/>
        <path id="Path_1035" data-name="Path 1035" d="M291.188,308.931c-4.682,11.868-5.2,14.185-2.341,20.119a75.924,75.924,0,0,1,4.682,13.624s-21.7,24.321-52.587,15.215l-13.881-8.006a31.085,31.085,0,0,1-7.7-6.273l4.225-31.508a11,11,0,0,0-.492-4.927l-4.436-13a35.534,35.534,0,0,1,8.8-36.88l14.911-14.572,39.162,5.009,5.852,1.674a16.562,16.562,0,0,1,11.8,18.223C297.262,281.437,294.125,301.475,291.188,308.931Z" transform="translate(-158.893 -156.141)" fill="#2b5eeb"/>
        <path id="Path_1036" data-name="Path 1036" d="M291.188,308.931c-4.682,11.868-5.2,14.185-2.341,20.119a75.924,75.924,0,0,1,4.682,13.624s-21.7,24.321-52.587,15.215l-13.881-8.006a31.085,31.085,0,0,1-7.7-6.273l4.225-31.508a11,11,0,0,0-.492-4.927l-4.436-13a35.534,35.534,0,0,1,8.8-36.88l14.911-14.572,39.162,5.009,5.852,1.674a16.562,16.562,0,0,1,11.8,18.223C297.262,281.437,294.125,301.475,291.188,308.931Z" transform="translate(-158.893 -156.141)" opacity="0.5"/>
        <path id="Path_1037" data-name="Path 1037" d="M265.513,274.591l-7.842-6.683a6.285,6.285,0,0,0-6.121-1.17L242.069,270l-1.276-5.314a6.3,6.3,0,0,0-7.865-4.576l-4.108,1.17,6.952-13.319a24.942,24.942,0,0,1,10.054-10.276l2.727-1.5,22.531,1.17s8.392,3.511,8.392,11.412l-13.963,25.749" transform="translate(-156.837 -157.253)" fill="#2b5eeb"/>
        <path id="Path_1038" data-name="Path 1038" d="M268.3,251.318l-22.589,17.6V212.87H268.3Z" transform="translate(-153.959 -161.228)" fill="#945959"/>
        <path id="Path_1039" data-name="Path 1039" d="M247.01,241.77,240.14,269.1l29.015-22.706Z" transform="translate(-154.908 -156.303)" fill="#945959"/>
        <path id="Path_1040" data-name="Path 1040" d="M245.712,242.634a39.537,39.537,0,0,0,22.577-21.489V212.87H245.7Z" transform="translate(-153.961 -161.228)" fill="#703838"/>
        <path id="Path_1041" data-name="Path 1041" d="M254.182,177.38c-8.567,0-26.779,4.775-28.886,27.2s-.07,39.794,11.493,41.48,38.437-6.706,42.041-35.733S262.527,177.38,254.182,177.38Z" transform="translate(-157.562 -167.276)" fill="#945959"/>
        <path id="Path_1042" data-name="Path 1042" d="M239.478,208.73v13.214l-7.748-2.376Z" transform="translate(-156.341 -161.933)" fill="#703838"/>
        <circle id="Ellipse_20" data-name="Ellipse 20" cx="2.692" cy="2.692" r="2.692" transform="translate(89.059 46.387)" fill="#263238"/>
        <path id="Path_1043" data-name="Path 1043" d="M233.654,209.474a2.692,2.692,0,1,1-.784-1.911,2.692,2.692,0,0,1,.784,1.911Z" transform="translate(-156.931 -162.267)" fill="#263238"/>
        <path id="Path_1044" data-name="Path 1044" d="M227.781,204.916l5.267-3.125s-2.013-2.1-4.026-.843S227.781,204.916,227.781,204.916Z" transform="translate(-157.039 -163.327)" fill="#263238"/>
        <path id="Path_1045" data-name="Path 1045" d="M235.24,224.883a11.412,11.412,0,0,0,7.245-1.943s.5,3.827-2.7,4.553S235.24,224.883,235.24,224.883Z" transform="translate(-155.743 -159.511)" fill="#703838"/>
        <path id="Path_1046" data-name="Path 1046" d="M231.31,185.612s3.219,30.958,45.319,31.929c0,0,12.722-30.77-12.418-40.766S231.31,185.612,231.31,185.612Z" transform="translate(-156.413 -167.877)" fill="#263238"/>
        <path id="Path_1047" data-name="Path 1047" d="M284.068,207.766h0l-5.173-3h0c-1.966-1.17-4.682-1.007-7.69.726-5.969,3.441-10.815,11.833-10.815,18.727,0,3.453,1.17,5.852,3.184,7.022h0l5.08,2.926.293.164.176.105h0c1.919.936,4.483.714,7.3-.913,5.969-3.511,10.815-11.833,10.815-18.727C287.2,211.312,286,208.9,284.068,207.766Z" transform="translate(-151.457 -162.736)" fill="#2b5eeb"/>
        <ellipse id="Ellipse_21" data-name="Ellipse 21" cx="15.286" cy="8.825" rx="15.286" ry="8.825" transform="translate(109.643 67.07) rotate(-60)" fill="#2b5eeb"/>
        <ellipse id="Ellipse_22" data-name="Ellipse 22" cx="15.286" cy="8.825" rx="15.286" ry="8.825" transform="translate(109.643 67.07) rotate(-60)" opacity="0.5"/>
        <path id="Path_1048" data-name="Path 1048" d="M284.743,213.143h0l-3.511-2.048h0c-1.334-.8-3.2-.691-5.255.492a16.386,16.386,0,0,0-7.4,12.816c0,2.341.831,4.015,2.177,4.787h0l3.511,2a1.173,1.173,0,0,0,.2.117l.117.07h0a5.384,5.384,0,0,0,5.009-.632,16.386,16.386,0,0,0,7.4-12.8C286.9,215.566,286.078,213.915,284.743,213.143Z" transform="translate(-150.061 -161.618)" fill="#2b5eeb"/>
        <path id="Path_1049" data-name="Path 1049" d="M286.386,217.62a16.386,16.386,0,0,1-7.4,12.8c-4.1,2.341-7.409.445-7.409-4.272a16.316,16.316,0,0,1,7.409-12.8C283.073,210.983,286.386,212.891,286.386,217.62Z" transform="translate(-149.55 -161.319)" fill="#2b5eeb"/>
        <path id="Path_1050" data-name="Path 1050" d="M286.386,217.62a16.386,16.386,0,0,1-7.4,12.8c-4.1,2.341-7.409.445-7.409-4.272a16.316,16.316,0,0,1,7.409-12.8C283.073,210.983,286.386,212.891,286.386,217.62Z" transform="translate(-149.55 -161.319)" opacity="0.3"/>
        <path id="Path_1051" data-name="Path 1051" d="M270.609,172.812a19.476,19.476,0,0,0-11.7-4.061h-1.042a63.075,63.075,0,0,0-12.793,1.17h0V172.1h2.177a28.921,28.921,0,0,1,27.938,28.944v9.211a2.6,2.6,0,0,0,2.868,2.587h.269l2.341-.726h0a2.176,2.176,0,0,1-.48.094,2.868,2.868,0,0,0,2.481-2.9v-8.544C282.64,185.3,275.957,176.99,270.609,172.812Z" transform="translate(-154.068 -168.747)" fill="#2b5eeb"/>
        <path id="Path_1052" data-name="Path 1052" d="M255.857,237.078a6.73,6.73,0,0,1-2.8-.609l-7.315-3.382a.878.878,0,1,1,.726-1.592l7.315,3.382a4.939,4.939,0,0,0,5.641-1.053l7.022-7.257a.878.878,0,0,1,1.241,0,.89.89,0,0,1,0,1.241l-7.022,7.257a6.66,6.66,0,0,1-4.81,2.013Z" transform="translate(-154.052 -158.937)" fill="#2b5eeb"/>
        <path id="Path_1053" data-name="Path 1053" d="M255.857,237.078a6.73,6.73,0,0,1-2.8-.609l-7.315-3.382a.878.878,0,1,1,.726-1.592l7.315,3.382a4.939,4.939,0,0,0,5.641-1.053l7.022-7.257a.878.878,0,0,1,1.241,0,.89.89,0,0,1,0,1.241l-7.022,7.257a6.66,6.66,0,0,1-4.81,2.013Z" transform="translate(-154.052 -158.937)" opacity="0.5"/>
        <path id="Path_1054" data-name="Path 1054" d="M248.3,230.5a3.418,3.418,0,1,1-3.418-3.418A3.418,3.418,0,0,1,248.3,230.5Z" transform="translate(-154.683 -158.806)" fill="#2b5eeb"/>
        <path id="Path_1055" data-name="Path 1055" d="M248.3,230.5a3.418,3.418,0,1,1-3.418-3.418A3.418,3.418,0,0,1,248.3,230.5Z" transform="translate(-154.683 -158.806)" opacity="0.5"/>
        <path id="Path_1056" data-name="Path 1056" d="M282.639,200.755V209.3a2.867,2.867,0,0,1-2.481,2.9,2.762,2.762,0,0,1-3.055-2.751v-8.7a30.77,30.77,0,0,0-32.023-30.794,63.073,63.073,0,0,1,12.793-1.17h1.018a19.476,19.476,0,0,1,11.7,4.061C275.956,176.983,282.639,185.293,282.639,200.755Z" transform="translate(-154.066 -168.74)" fill="#2b5eeb"/>
        <path id="Path_1057" data-name="Path 1057" d="M282.639,200.755V209.3a2.867,2.867,0,0,1-2.481,2.9,2.762,2.762,0,0,1-3.055-2.751v-8.7a30.77,30.77,0,0,0-32.023-30.794,63.073,63.073,0,0,1,12.793-1.17h1.018a19.476,19.476,0,0,1,11.7,4.061C275.956,176.983,282.639,185.293,282.639,200.755Z" transform="translate(-154.066 -168.74)" opacity="0.5"/>
        <path id="Path_1058" data-name="Path 1058" d="M266.036,333.75s-5.665,15.6,14.583,22.624c0,0,6.613-9.714,0-17.662S266.036,333.75,266.036,333.75Z" transform="translate(-150.619 -140.721)" fill="#2b5eeb"/>
        <path id="Path_1059" data-name="Path 1059" d="M266.036,333.75s-5.665,15.6,14.583,22.624c0,0,6.613-9.714,0-17.662S266.036,333.75,266.036,333.75Z" transform="translate(-150.619 -140.721)" opacity="0.7"/>
        <path id="Path_1060" data-name="Path 1060" d="M275.148,334.28s-19.78,7.245-19.675,10.054,8.4.89,8.4.89l-3.031,1.99a18.54,18.54,0,0,0-7.081,8.638h0a3.418,3.418,0,0,0,1.568,4.272l7.514,3.979a3.593,3.593,0,0,0,4.9-1.58h0a7.023,7.023,0,0,1,4.108-3.511c4.085-1.358,11.7-5.267,14.759-15.965Z" transform="translate(-152.627 -140.537)" fill="#945959"/>
        <path id="Path_1061" data-name="Path 1061" d="M278.968,248.41s-10.534,5.852-4.939,23.619,16.093,45.33,16.093,45.33L265.93,348.2a18.516,18.516,0,0,1,12.957,7.772,16.386,16.386,0,0,1,1.627,14.853L310.546,332.2a27.212,27.212,0,0,0,4.26-25.55l-12.875-37.594a31.461,31.461,0,0,0-19.9-19.675Z" transform="translate(-150.513 -155.171)" fill="#2b5eeb"/>
      </g>
      <g id="freepik--Icons--inject-279" transform="translate(74.696 60.677)">
        <path id="Path_1062" data-name="Path 1062" d="M134.288,162.761,87.74,135.842a3.921,3.921,0,0,0-3.71-.41h0a2.246,2.246,0,0,0-.363.211l-10.124,5.934h.07c-1.276.726-2.083,2.411-2.083,4.822v51.779c0,4.377,2.657,9.469,5.946,11.365l46.547,26.92a3.722,3.722,0,0,0,4.1.176.211.211,0,0,0-.082.059l10.054-5.852h0c1.311-.7,2.142-2.411,2.142-4.857V174.126C140.233,169.749,137.623,164.657,134.288,162.761Z" transform="translate(-71.53 -42.986)" fill="#2b5eeb"/>
        <path id="Path_1063" data-name="Path 1063" d="M138.278,167.665a11.845,11.845,0,0,0-4.284-4.9l-46.547-26.92a3.921,3.921,0,0,0-3.71-.41h0a2.248,2.248,0,0,0-.363.211L73.25,141.577a3.792,3.792,0,0,1,3.933.293l46.547,26.92a12.055,12.055,0,0,1,4.389,5.126h0Z" transform="translate(-71.237 -42.986)" fill="#2b5eeb"/>
        <path id="Path_1064" data-name="Path 1064" d="M121.741,227.174c0,2.341-.749,3.968-1.931,4.682L129.864,226h0c1.311-.7,2.142-2.411,2.142-4.857V169.391a14.642,14.642,0,0,0-1.662-6.461l-10.159,6.25h0a14.618,14.618,0,0,1,1.557,6.238Z" transform="translate(-63.302 -38.251)" fill="#2b5eeb"/>
        <path id="Path_1065" data-name="Path 1065" d="M138.278,167.665a11.845,11.845,0,0,0-4.284-4.9l-46.547-26.92a3.921,3.921,0,0,0-3.71-.41h0a2.248,2.248,0,0,0-.363.211L73.25,141.577a3.792,3.792,0,0,1,3.933.293l46.547,26.92a12.055,12.055,0,0,1,4.389,5.126h0Z" transform="translate(-71.237 -42.986)" opacity="0.3"/>
        <path id="Path_1066" data-name="Path 1066" d="M121.741,227.174c0,2.341-.749,3.968-1.931,4.682L129.864,226h0c1.311-.7,2.142-2.411,2.142-4.857V169.391a14.642,14.642,0,0,0-1.662-6.461l-10.159,6.25h0a14.618,14.618,0,0,1,1.557,6.238Z" transform="translate(-63.302 -38.251)" opacity="0.6"/>
        <path id="Path_1067" data-name="Path 1067" d="M114.316,190.305c0,6.706-2.657,8.989-6.636,6.683a9.363,9.363,0,0,1-4.448-5.852c-1.17,1.44-2.985,1.533-5.536.059-4.19-2.423-7.491-8.193-7.491-13.8s3.265-7.537,7.491-5.1a12.875,12.875,0,0,1,4.986,5.349v-2.212l4.412,2.551v12.126a3.511,3.511,0,0,0,1.557,3.289c1.486.866,2.4-.6,2.4-4.939,0-7.6-4.869-15.648-12.067-19.8s-12.055-1.264-12.055,6.554a24.579,24.579,0,0,0,11.927,20.517,13.9,13.9,0,0,0,6.39,2.037l1.042,4.038a16.632,16.632,0,0,1-7.432-2.446C89.492,193.934,83.3,183.025,83.3,173.147s6.25-13.46,15.684-8.006C108.1,170.4,114.316,180.919,114.316,190.305Zm-11.564-5.63a8.591,8.591,0,0,0-4.061-7.432c-2.341-1.369-4.015-.41-4.015,2.774a8.649,8.649,0,0,0,4.015,7.479c2.341,1.323,4.061.468,4.061-2.821Z" transform="translate(-69.524 -38.308)" fill="#2b5eeb"/>
        <g id="Group_34" data-name="Group 34" transform="translate(13.776 124.283)" opacity="0.9">
          <path id="Path_1068" data-name="Path 1068" d="M114.316,190.305c0,6.706-2.657,8.989-6.636,6.683a9.363,9.363,0,0,1-4.448-5.852c-1.17,1.44-2.985,1.533-5.536.059-4.19-2.423-7.491-8.193-7.491-13.8s3.265-7.537,7.491-5.1a12.875,12.875,0,0,1,4.986,5.349v-2.212l4.412,2.551v12.126a3.511,3.511,0,0,0,1.557,3.289c1.486.866,2.4-.6,2.4-4.939,0-7.6-4.869-15.648-12.067-19.8s-12.055-1.264-12.055,6.554a24.579,24.579,0,0,0,11.927,20.517,13.9,13.9,0,0,0,6.39,2.037l1.042,4.038a16.632,16.632,0,0,1-7.432-2.446C89.492,193.934,83.3,183.025,83.3,173.147s6.25-13.46,15.684-8.006C108.1,170.4,114.316,180.919,114.316,190.305Zm-11.564-5.63a8.591,8.591,0,0,0-4.061-7.432c-2.341-1.369-4.015-.41-4.015,2.774a8.649,8.649,0,0,0,4.015,7.479c2.341,1.323,4.061.468,4.061-2.821Z" transform="translate(-83.3 -162.591)" fill="#fff"/>
        </g>
        <path id="Path_1069" data-name="Path 1069" d="M134.288,241.541,87.74,214.622a3.874,3.874,0,0,0-3.71-.4h0a2.25,2.25,0,0,0-.363.211l-10.124,5.934h.07c-1.276.726-2.083,2.411-2.083,4.81v51.756c0,4.389,2.657,9.469,5.946,11.365l46.547,26.92a3.7,3.7,0,0,0,4.1.176l-.082.07,10.054-5.911h0c1.311-.691,2.142-2.341,2.142-4.857v-51.8C140.233,248.517,137.623,243.437,134.288,241.541Z" transform="translate(-71.53 -29.56)" fill="#2b5eeb"/>
        <path id="Path_1070" data-name="Path 1070" d="M138.278,246.445a11.774,11.774,0,0,0-4.284-4.9l-46.547-26.92a3.874,3.874,0,0,0-3.71-.4h0a2.25,2.25,0,0,0-.363.211L73.25,220.368a3.78,3.78,0,0,1,3.933.281l46.547,26.92a12.02,12.02,0,0,1,4.389,5.138h0Z" transform="translate(-71.237 -29.56)" fill="#2b5eeb"/>
        <path id="Path_1071" data-name="Path 1071" d="M121.741,305.942c0,2.341-.749,3.968-1.931,4.74l10.054-5.911h0c1.311-.691,2.142-2.341,2.142-4.857V248.159a14.6,14.6,0,0,0-1.662-6.449l-10.159,6.25h0a14.572,14.572,0,0,1,1.557,6.227Z" transform="translate(-63.302 -24.825)" fill="#2b5eeb"/>
        <path id="Path_1072" data-name="Path 1072" d="M138.278,246.445a11.774,11.774,0,0,0-4.284-4.9l-46.547-26.92a3.874,3.874,0,0,0-3.71-.4h0a2.25,2.25,0,0,0-.363.211L73.25,220.368a3.78,3.78,0,0,1,3.933.281l46.547,26.92a12.02,12.02,0,0,1,4.389,5.138h0Z" transform="translate(-71.237 -29.56)" opacity="0.3"/>
        <path id="Path_1073" data-name="Path 1073" d="M121.741,305.942c0,2.341-.749,3.968-1.931,4.74l10.054-5.911h0c1.311-.691,2.142-2.341,2.142-4.857V248.159a14.6,14.6,0,0,0-1.662-6.449l-10.159,6.25h0a14.572,14.572,0,0,1,1.557,6.227Z" transform="translate(-63.302 -24.825)" opacity="0.6"/>
        <path id="Path_1074" data-name="Path 1074" d="M93.684,259.945,82.46,241.71v24.707Z" transform="translate(-69.667 -24.825)" fill="#2b5eeb"/>
        <path id="Path_1075" data-name="Path 1075" d="M100.96,262.549l11.2,19.394V257.27Z" transform="translate(-66.515 -22.173)" fill="#2b5eeb"/>
        <path id="Path_1076" data-name="Path 1076" d="M83.91,241l11.529,18.727a.738.738,0,0,1,.129.14.328.328,0,0,1,0,.14L99,265.579l2.9-1.369a.807.807,0,0,1,.152-.129.877.877,0,0,1,.375-.117l11.7-5.489Z" transform="translate(-69.42 -24.946)" fill="#2b5eeb"/>
        <path id="Path_1077" data-name="Path 1077" d="M102.279,263.109l-3.137,1.475a.878.878,0,0,1-.386.082.936.936,0,0,1-.808-.445l-3.429-5.571L83.26,265.158l30.3,17.486Z" transform="translate(-69.531 -21.938)" fill="#2b5eeb"/>
        <g id="Group_35" data-name="Group 35" transform="translate(12.793 216.054)" opacity="0.9">
          <path id="Path_1078" data-name="Path 1078" d="M93.684,259.945,82.46,241.71v24.707Z" transform="translate(-82.46 -240.879)" fill="#fff"/>
          <path id="Path_1079" data-name="Path 1079" d="M100.96,262.549l11.2,19.394V257.27Z" transform="translate(-79.307 -238.227)" fill="#fff"/>
          <path id="Path_1080" data-name="Path 1080" d="M83.91,241l11.529,18.727a.738.738,0,0,1,.129.14.328.328,0,0,1,0,.14L99,265.579l2.9-1.369a.807.807,0,0,1,.152-.129.877.877,0,0,1,.375-.117l11.7-5.489Z" transform="translate(-82.213 -241)" fill="#fff"/>
          <path id="Path_1081" data-name="Path 1081" d="M102.279,263.109l-3.137,1.475a.878.878,0,0,1-.386.082.936.936,0,0,1-.808-.445l-3.429-5.571L83.26,265.158l30.3,17.486Z" transform="translate(-82.324 -237.992)" fill="#fff"/>
        </g>
        <path id="Path_1082" data-name="Path 1082" d="M134.288,84.021,87.74,57.1a3.874,3.874,0,0,0-3.71-.4h0a2.248,2.248,0,0,0-.363.211L73.543,62.848h.07c-1.276.714-2.083,2.411-2.083,4.81v51.756c0,4.377,2.657,9.469,5.946,11.365l46.547,26.92a3.7,3.7,0,0,0,4.1.176l-.082.059,10.054-5.852h0c1.311-.691,2.142-2.341,2.142-4.857V95.339C140.233,90.962,137.623,85.87,134.288,84.021Z" transform="translate(-71.53 -56.404)" fill="#2b5eeb"/>
        <path id="Path_1083" data-name="Path 1083" d="M138.278,88.89a11.809,11.809,0,0,0-4.284-4.916L87.447,57.1a3.874,3.874,0,0,0-3.71-.4h0a2.248,2.248,0,0,0-.363.211L73.25,62.848a3.78,3.78,0,0,1,3.933.281l46.547,26.92a12.02,12.02,0,0,1,4.389,5.138h0Z" transform="translate(-71.237 -56.404)" fill="#2b5eeb"/>
        <path id="Path_1084" data-name="Path 1084" d="M121.741,148.346c0,2.341-.749,3.968-1.931,4.682l10.054-5.852h0c1.311-.691,2.142-2.341,2.142-4.857V90.609a14.6,14.6,0,0,0-1.662-6.449l-10.159,6.25h0a14.572,14.572,0,0,1,1.557,6.227Z" transform="translate(-63.302 -51.674)" fill="#2b5eeb"/>
        <path id="Path_1085" data-name="Path 1085" d="M138.278,88.89a11.809,11.809,0,0,0-4.284-4.916L87.447,57.1a3.874,3.874,0,0,0-3.71-.4h0a2.248,2.248,0,0,0-.363.211L73.25,62.848a3.78,3.78,0,0,1,3.933.281l46.547,26.92a12.02,12.02,0,0,1,4.389,5.138h0Z" transform="translate(-71.237 -56.404)" opacity="0.3"/>
        <path id="Path_1086" data-name="Path 1086" d="M121.741,148.346c0,2.341-.749,3.968-1.931,4.682l10.054-5.852h0c1.311-.691,2.142-2.341,2.142-4.857V90.609a14.6,14.6,0,0,0-1.662-6.449l-10.159,6.25h0a14.572,14.572,0,0,1,1.557,6.227Z" transform="translate(-63.302 -51.674)" opacity="0.6"/>
        <path id="Path_1087" data-name="Path 1087" d="M112.673,126.891c-1.791-2.949-3.593-5.852-5.384-8.825a4.588,4.588,0,0,0-2.821-2.341c-.866-.176-1.732-.375-2.622-.632a1.615,1.615,0,0,1-.761-.655A73.994,73.994,0,0,1,94.145,98.52a.878.878,0,0,1,.094-.714c.55-.55,1.17-1.053,1.732-1.545a3.076,3.076,0,0,0,.445-3.1c-.866-3.125-1.7-6.25-2.563-9.363a5.126,5.126,0,0,0-3.347-3.886,9.469,9.469,0,0,0-5.735.211c-.714.269-1.088.913-1.1,2.025.3,2.142.5,4.26.913,6.437q4.331,23.549,20.833,43.305a3.336,3.336,0,0,0,2.61,1.5,7.865,7.865,0,0,0,4.951-1.908C114.019,130.543,113.914,128.881,112.673,126.891Z" transform="translate(-69.461 -52.457)" fill="#2b5eeb"/>
        <path id="Path_1088" data-name="Path 1088" d="M109.536,108.787a24.86,24.86,0,0,0-2.727-9.644,28.5,28.5,0,0,0-4.389-6.449c-.456-.515-.843-.679-1.077-.293s0,.936.445,1.44l.456.527a24.661,24.661,0,0,1,5.852,13.261,4.682,4.682,0,0,0,.105,1.065,2.844,2.844,0,0,0,.691,1.065c.246.176.527,0,.726,0C109.548,109.278,109.56,109.033,109.536,108.787Z" transform="translate(-66.465 -50.306)" fill="#2b5eeb"/>
        <path id="Path_1089" data-name="Path 1089" d="M99.329,98.377a9.89,9.89,0,0,1,2.54,5.852,3.722,3.722,0,0,0,.363.948c.714.585,1.065.386,1.065-.351a12.875,12.875,0,0,0-3.289-7.5c-.445-.456-.808-.6-1.018-.211A1.17,1.17,0,0,0,99.329,98.377Z" transform="translate(-66.861 -49.505)" fill="#2b5eeb"/>
        <g id="Group_36" data-name="Group 36" transform="translate(14.209 27.107)" opacity="0.9">
          <path id="Path_1090" data-name="Path 1090" d="M112.673,126.891c-1.791-2.949-3.593-5.852-5.384-8.825a4.588,4.588,0,0,0-2.821-2.341c-.866-.176-1.732-.375-2.622-.632a1.615,1.615,0,0,1-.761-.655A73.994,73.994,0,0,1,94.145,98.52a.878.878,0,0,1,.094-.714c.55-.55,1.17-1.053,1.732-1.545a3.076,3.076,0,0,0,.445-3.1c-.866-3.125-1.7-6.25-2.563-9.363a5.126,5.126,0,0,0-3.347-3.886,9.469,9.469,0,0,0-5.735.211c-.714.269-1.088.913-1.1,2.025.3,2.142.5,4.26.913,6.437q4.331,23.549,20.833,43.305a3.336,3.336,0,0,0,2.61,1.5,7.865,7.865,0,0,0,4.951-1.908C114.019,130.543,113.914,128.881,112.673,126.891Z" transform="translate(-83.67 -79.564)" fill="#fff"/>
          <path id="Path_1091" data-name="Path 1091" d="M109.536,108.787a24.86,24.86,0,0,0-2.727-9.644,28.5,28.5,0,0,0-4.389-6.449c-.456-.515-.843-.679-1.077-.293s0,.936.445,1.44l.456.527a24.661,24.661,0,0,1,5.852,13.261,4.682,4.682,0,0,0,.105,1.065,2.844,2.844,0,0,0,.691,1.065c.246.176.527,0,.726,0C109.548,109.278,109.56,109.033,109.536,108.787Z" transform="translate(-80.674 -77.413)" fill="#fff"/>
          <path id="Path_1092" data-name="Path 1092" d="M99.329,98.377a9.89,9.89,0,0,1,2.54,5.852,3.722,3.722,0,0,0,.363.948c.714.585,1.065.386,1.065-.351a12.875,12.875,0,0,0-3.289-7.5c-.445-.456-.808-.6-1.018-.211A1.17,1.17,0,0,0,99.329,98.377Z" transform="translate(-81.07 -76.612)" fill="#fff"/>
        </g>
      </g>
      <g id="freepik--Clouds--inject-279" transform="translate(371.198 51.255)">
        <path id="Path_1093" data-name="Path 1093" d="M329.94,54.353l10.967,6.238v-5.63h0c.4-5.138,4.3-7.116,9.047-4.366a17.719,17.719,0,0,1,5.407,5.185c1.065-7.022,6.765-9.5,13.659-5.536,7.655,4.424,13.858,15.215,13.858,24.017v8.31a3.792,3.792,0,0,0,1.837,3.312l6.461,3.78a9.363,9.363,0,0,1,4.588,8.029,3.827,3.827,0,0,1-5.747,3.312L330.1,66.374A10.534,10.534,0,0,1,324.86,57.3a3.394,3.394,0,0,1,5.08-2.949Z" transform="translate(-324.86 -48.355)" fill="#e6e6e6"/>
        <path id="Path_1094" data-name="Path 1094" d="M401.167,52.721l7.971,4.576V53.2h0c.293-3.734,3.125-5.173,6.578-3.172a12.874,12.874,0,0,1,3.933,3.757c.784-5.08,4.927-6.917,9.937-4.026,5.571,3.219,10.077,11.037,10.077,17.463v6.051a2.739,2.739,0,0,0,1.358,2.341l4.682,2.75a6.765,6.765,0,0,1,3.336,5.852,2.786,2.786,0,0,1-4.132,2.434L401.284,61.464a7.619,7.619,0,0,1-3.8-6.589,2.47,2.47,0,0,1,3.687-2.154Z" transform="translate(-312.484 -48.349)" fill="#e6e6e6"/>
      </g>
    </g>
  </g>
</svg>
