<svg xmlns="http://www.w3.org/2000/svg" xmlns:xlink="http://www.w3.org/1999/xlink" width="668.148" height="691.733" viewBox="0 0 668.148 691.733">
  <defs>
    <clipPath id="clip-path">
      <path id="Path_897" data-name="Path 897" d="M419.851,180.87a15.709,15.709,0,0,0,6.168,5.778s13.835,0,17.926-16.068,11.977-19.5,11.977-19.5a4.013,4.013,0,0,0-3.607-.812l1.921-2.139a6.246,6.246,0,0,0-6.246.718l.484-3.123a13.148,13.148,0,0,1-7.511,5.825C436,152.653,414.761,161.445,419.851,180.87Z" transform="translate(-419.069 -145.72)" fill="#fff" stroke="#263238" stroke-linecap="round" stroke-linejoin="round" stroke-width="1"/>
    </clipPath>
    <clipPath id="clip-path-2">
      <path id="Path_902" data-name="Path 902" d="M317.572,109.164c55.09,22.892,55.793,76.187,36.883,102.779-17.177,24.219-40.412,22.392-42.442,33.979s-66.833-5.294-69.847-13.585,10.431-7.167-14.46-40.4S249.927,81.056,317.572,109.164Z" transform="translate(-220.959 -103.147)" fill="#fff" stroke="#263238" stroke-linecap="round" stroke-linejoin="round" stroke-width="1"/>
    </clipPath>
  </defs>
  <g id="Group_113" data-name="Group 113" transform="translate(-122.852 -1090)">
    <g id="Creative_thinking-bro" data-name="Creative thinking-bro" transform="translate(93.198 1060.884)">
      <g id="freepik--background-simple--inject-222" transform="translate(29.654 29.116)">
        <path id="Path_872" data-name="Path 872" d="M73.33,244.566S29.795,357,90.975,470.205s187.2,173.016,288.054,224.156,205.59,26.234,255.355-57.526S615.9,493.285,615.8,373.844s17.879-151.061-46.846-251.967S345.566-1.374,225.579,73.47,73.33,244.566,73.33,244.566Z" transform="translate(-13.561 -29.116)" fill="#fff" opacity="0.7"/>
        <path id="Path_873" data-name="Path 873" d="M651.774,119.131C563.3,21.27,397.527,36.37,320.481,56.9c-53,14.179-83.557,60.9-120.612,66.583C88.221,140.664,14.782,197.613,32.209,294.739s109.759,127.67,155.043,268.347S344.4,726.89,463.126,679.248,603.273,594.63,631.38,462.2,753.179,231.217,651.774,119.131Z" transform="translate(-29.654 -22.028)" fill="#2b5eeb"/>
        <path id="Path_874" data-name="Path 874" d="M651.774,119.131C563.3,21.27,397.527,36.37,320.481,56.9c-53,14.179-83.557,60.9-120.612,66.583C88.221,140.664,14.782,197.613,32.209,294.739s109.759,127.67,155.043,268.347S344.4,726.89,463.126,679.248,603.273,594.63,631.38,462.2,753.179,231.217,651.774,119.131Z" transform="translate(-29.654 -22.028)" fill="#fff" opacity="0.7"/>
      </g>
      <g id="freepik--Elements--inject-222" transform="translate(68.42 72.455)">
        <path id="Path_875" data-name="Path 875" d="M201.4,227.732c20.1-3.123,19.675-45.94-15.787-58.417s-17.177-40.256.406-34.119,17.879,47.142,44.363,50.8,32.058-49.313,17.5-66.365,15.147-10.009,18.738-15.131c5.731-8.276-13.32-48,7.464-44.488,10.29,1.733-.5,27.3,7.2,65.287s16.927,56.9,34.353,36.7-1.765-36.056,11.009-45.659,23.079-.859,21.861,11.212-1.749,23.938,6.715,19.613,22.392-24.531,29.31-40.412,14.788-14.866,15.428-3.029-30.84,37.6-31.652,55.231,11.462,49.563,39.35,28.326,34.354-28.966,44-17.614,2.483,29.934,18.27,29.669,35.462-42.27,45.393-39.038,28.685,12.367-5.45,31.23-45.706,18.051-44.191,38.632,81.465,23.032,73.391,36.68-97.533,12.008-106.87,45.628,39.038,28.482,30.575,47.3-28.107-8.057-45.862-23.938-18.129-4-33.745,1.015-19.035-3.888-29.06-6.418-3.9,18.036-18.988,15.849-4.685-5.278-14.9-9.2-19.035,35.025-40.99,28.951-35.306-23.813-49.047-11.29S226.5,393.846,206.9,392s-12.648-20.112-4.357-22.236,30.684-32.167,26.811-43.723-41.209,19.222-49.172,3.4-14.866-29.388-33.979-24.625-22.033-21.861-7.074-21.455,49.672,3.014,52.389-9.51-6.152-26.546-29.763-38.367-.437-35.728,16.162-22.517S185.509,230.137,201.4,227.732Z" transform="translate(-12.289 -55.231)" fill="#2b5eeb"/>
        <path id="Path_876" data-name="Path 876" d="M75.491,302.281,62.14,273.83h49.219Z" transform="translate(-50.179 64.958)" fill="none" stroke="#263238" stroke-linecap="round" stroke-linejoin="round" stroke-width="1"/>
        <path id="Path_877" data-name="Path 877" d="M214.545,165.9l6.168,16.583-27.623-2.3Z" transform="translate(23.352 4.353)" fill="none" stroke="#263238" stroke-linecap="round" stroke-linejoin="round" stroke-width="1"/>
        <path id="Path_878" data-name="Path 878" d="M211.41,56.87,226.2,64.022l-14.788,7.23L226.2,80.4,211.41,90.3l16.583,7.667-13.07,12.18" transform="translate(33.639 -56.87)" fill="none" stroke="#263238" stroke-linecap="round" stroke-linejoin="round" stroke-width="1"/>
        <path id="Path_879" data-name="Path 879" d="M400.941,338.126,395.96,368.5h31.793l2.483-9.353-21.174-.187,4.044-22.127Z" transform="translate(137.268 100.333)" fill="none" stroke="#263238" stroke-linecap="round" stroke-linejoin="round" stroke-width="1"/>
        <circle id="Ellipse_15" data-name="Ellipse 15" cx="13.398" cy="13.398" r="13.398" transform="translate(452.198 526.228) rotate(-45)" fill="none" stroke="#263238" stroke-linecap="round" stroke-linejoin="round" stroke-width="1"/>
        <circle id="Ellipse_16" data-name="Ellipse 16" cx="13.398" cy="13.398" r="13.398" transform="translate(139.865 72.205)" fill="none" stroke="#263238" stroke-linecap="round" stroke-linejoin="round" stroke-width="1"/>
        <line id="Line_3" data-name="Line 3" x2="29.513" y2="16.88" transform="translate(564.146 312.82)" fill="none" stroke="#263238" stroke-linecap="round" stroke-linejoin="round" stroke-width="1"/>
        <line id="Line_4" data-name="Line 4" x1="11.368" y2="22.377" transform="translate(573.219 312.07)" fill="none" stroke="#263238" stroke-linecap="round" stroke-linejoin="round" stroke-width="1"/>
        <line id="Line_5" data-name="Line 5" x1="31.964" y2="11.602" transform="translate(390.177 210.602)" fill="none" stroke="#263238" stroke-linecap="round" stroke-linejoin="round" stroke-width="1"/>
        <line id="Line_6" data-name="Line 6" x1="9.728" y1="23.142" transform="translate(399.765 203.529)" fill="none" stroke="#263238" stroke-linecap="round" stroke-linejoin="round" stroke-width="1"/>
        <path id="Path_880" data-name="Path 880" d="M130.781,271.444c-.219.593,23.235-10.134,23.235-10.134l11.462,26.249-23.251,10.134Z" transform="translate(-11.636 57.927)" fill="none" stroke="#263238" stroke-linecap="round" stroke-linejoin="round" stroke-width="1"/>
        <path id="Path_881" data-name="Path 881" d="M340.01,245.28c-.25,0,6.246,7.808,6.246,7.808l-8.76,7-6.246-7.808Z" transform="translate(100.932 48.926)" fill="none" stroke="#263238" stroke-linecap="round" stroke-linejoin="round" stroke-width="1"/>
        <path id="Path_882" data-name="Path 882" d="M66.441,200.781a5.965,5.965,0,1,1-1.747-4.234A5.981,5.981,0,0,1,66.441,200.781Z" transform="translate(-54.48 20.581)" fill="none" stroke="#263238" stroke-linecap="round" stroke-linejoin="round" stroke-width="1"/>
        <path id="Path_883" data-name="Path 883" d="M298.3,62.835a5.981,5.981,0,1,1-5.981-5.965A5.981,5.981,0,0,1,298.3,62.835Z" transform="translate(75.714 -56.87)" fill="none" stroke="#263238" stroke-linecap="round" stroke-linejoin="round" stroke-width="1"/>
        <path id="Path_884" data-name="Path 884" d="M348.573,291.44l6.355,10.618-12.992,1.015L345.387,313l-14.4,1.093,7,19.066" transform="translate(100.786 74.846)" fill="none" stroke="#263238" stroke-linecap="round" stroke-linejoin="round" stroke-width="1"/>
        <path id="Path_885" data-name="Path 885" d="M128.84,346.85l11.212,6.746-15.006,12.242,9.4,5.934-12.086,13.4" transform="translate(-16.364 105.96)" fill="none" stroke="#263238" stroke-linecap="round" stroke-linejoin="round" stroke-width="1"/>
        <path id="Path_886" data-name="Path 886" d="M337.324,140.8l-9.244-9.275,17.536-8.229-7.667-8.042L352.924,105.2" transform="translate(99.152 -29.732)" fill="none" stroke="#263238" stroke-linecap="round" stroke-linejoin="round" stroke-width="1"/>
      </g>
      <g id="freepik--paint-tools--inject-222" transform="translate(512.164 207.124)">
        <path id="Path_887" data-name="Path 887" d="M344.847,177.634c-18.473,44.129,5.465,91.021,57.292,97.907S480.106,246,457.87,234.489s-19.519-28.435-24.641-65.131S363.289,133.568,344.847,177.634ZM428.2,215.22c-22.345,17.4-17.177-12.492-9.15-15.178S436.6,208.724,428.2,215.22Z" transform="translate(-338.654 -143.112)" fill="#999" stroke="#263238" stroke-linecap="round" stroke-linejoin="round" stroke-width="1"/>
        <path id="Path_888" data-name="Path 888" d="M390.958,153.174c-5.434-1.124-8.994,5.746-13.289,7.808a110.385,110.385,0,0,0,7.042,11.118,3.763,3.763,0,0,1,3.123-1.312,17.593,17.593,0,0,1,2.53.625,5.949,5.949,0,0,0,6.387-8.869c-.344-.562-.781-1.187-.593-1.811s1.015-.968,1.2-1.562a1.8,1.8,0,0,0-.328-1.3,9.369,9.369,0,0,0-6.074-4.7Z" transform="translate(-316.745 -137.531)" fill="#2b5eeb" stroke="#263238" stroke-linecap="round" stroke-linejoin="round" stroke-width="1"/>
        <path id="Path_889" data-name="Path 889" d="M373.008,159.147c-3-.609-6.355-.469-8.76-2.358a4.278,4.278,0,0,0-1.749-1.109,3.217,3.217,0,0,0-2.28.843,25.157,25.157,0,0,0-7.7,7.152c-1.811,3.029-2.124,7.23.219,9.869,1.3,1.452,3.373,2.53,3.513,4.466s-3.841,6.918.984,7.324a7.62,7.62,0,0,0,4.31-1.468c2.342-1.343,5.606-.593,7.542-2.217,1.655-1.421.078-4.357,2.748-5.294,1.718-.609,5.434,1.312,5.9-1.561.312-2.061-2.608-2.8-3.31-4.4a3.248,3.248,0,0,1,.937-3.451,9.744,9.744,0,0,1,3.31-1.8C379.317,162.067,375.944,159.741,373.008,159.147Z" transform="translate(-331.68 -136.056)" fill="#2b5eeb" stroke="#263238" stroke-linecap="round" stroke-linejoin="round" stroke-width="1"/>
        <path id="Path_890" data-name="Path 890" d="M371.545,187.152c-.671-.531-4.216.734-5.746-.921-6.027-6.5-21.377,16.006-11.383,19.6a6.152,6.152,0,0,1,1.936.828c2.077,1.733-.515,5.731,1.421,7.62s4.575-.515,7.027-.406a17.18,17.18,0,0,0,2.8.359,5.106,5.106,0,0,0,3.045-2.186c2.5-2.982,5.387-6.777,4.934-10.931-.328-3.123-2.545-6.449-3.529-9.369C371.233,189.338,373.544,189.2,371.545,187.152Z" transform="translate(-331.654 -119.557)" fill="#2b5eeb" stroke="#263238" stroke-linecap="round" stroke-linejoin="round" stroke-width="1"/>
        <path id="Path_891" data-name="Path 891" d="M388.468,210.2a26.011,26.011,0,0,1-2.873-4.06c-1.015-1.3-2.967-2.249-4.31-1.265-.625.453-1.015,1.265-1.765,1.468a3.561,3.561,0,0,1-1.78-.281,4.513,4.513,0,0,0-5.184,6.449c1.905,3.685,3.591,14.319,7.011,13.632,2.639-.547,4.888,2.858,7.308,2.233,4.013-1.015,6.824-13.46,4.044-16.349C390.216,211.294,389.233,210.872,388.468,210.2Z" transform="translate(-319.907 -108.659)" fill="#2b5eeb" stroke="#263238" stroke-linecap="round" stroke-linejoin="round" stroke-width="1"/>
        <path id="Path_892" data-name="Path 892" d="M408.237,210.552a27.714,27.714,0,0,0-4.888-1.7,9.2,9.2,0,0,0-4.685-.344,3.123,3.123,0,0,0-2.389,3.623c.219.687.75,1.249.984,1.921.906,2.576-3.873,7.167.359,8.651,3.591,1.249,10.259.578,13.117-2.171C415.623,215.721,412.391,212.488,408.237,210.552Z" transform="translate(-306.541 -106.48)" fill="#2b5eeb" stroke="#263238" stroke-linecap="round" stroke-linejoin="round" stroke-width="1"/>
        <path id="Path_893" data-name="Path 893" d="M416.56,175.261l5.309-6.871,7.152,4.544-5.247,7.636Z" transform="translate(-294.908 -128.918)" fill="#bfbfbf" stroke="#263238" stroke-linecap="round" stroke-linejoin="round" stroke-width="1"/>
        <path id="Path_894" data-name="Path 894" d="M435.938,171.7c-29.279,43.27-46.689,74.079-54.653,88.819a1.405,1.405,0,0,0,2.327,1.561c9.369-11.087,28.5-35.181,61.461-82.948C446.838,176.711,437.609,169.309,435.938,171.7Z" transform="translate(-314.817 -127.324)" fill="#263238"/>
        <path id="Path_895" data-name="Path 895" d="M419.851,180.87a15.709,15.709,0,0,0,6.168,5.778s13.835,0,17.926-16.068,11.977-19.5,11.977-19.5a4.013,4.013,0,0,0-3.607-.812l1.921-2.139a6.246,6.246,0,0,0-6.246.718l.484-3.123a13.148,13.148,0,0,1-7.511,5.825C436,152.653,414.761,161.445,419.851,180.87Z" transform="translate(-293.499 -141.648)" fill="#fff"/>
        <g id="Group_25" data-name="Group 25" transform="translate(125.571 4.072)" clip-path="url(#clip-path)">
          <path id="Path_896" data-name="Path 896" d="M438.707,170.579a27.454,27.454,0,0,1-1.562,4.5c.3-3.9,1.858-9.369,0-10.041-2.889-1.062-3.56,4.778-4.013,2.826s2.061-5.512,1.749-7.808-3.826,1.8-6,2.358,3.669-6.121,2.889-7.808a2.858,2.858,0,0,0-1.561-1.031,28.244,28.244,0,0,1,5.434-2.046,13.148,13.148,0,0,0,7.511-5.809l-.484,3.123a6.246,6.246,0,0,1,6.246-.718L447,150.28a3.888,3.888,0,0,1,3.592.8S442.8,154.511,438.707,170.579Z" transform="translate(-413.831 -145.72)" fill="#2b5eeb"/>
        </g>
        <path id="Path_898" data-name="Path 898" d="M419.851,180.87a15.709,15.709,0,0,0,6.168,5.778s13.835,0,17.926-16.068,11.977-19.5,11.977-19.5a4.013,4.013,0,0,0-3.607-.812l1.921-2.139a6.246,6.246,0,0,0-6.246.718l.484-3.123a13.148,13.148,0,0,1-7.511,5.825C436,152.653,414.761,161.445,419.851,180.87Z" transform="translate(-293.499 -141.648)" fill="none" stroke="#263238" stroke-linecap="round" stroke-linejoin="round" stroke-width="1"/>
      </g>
      <g id="freepik--light-bulb--inject-222" transform="translate(328.381 144.717)">
        <path id="Path_899" data-name="Path 899" d="M238.312,183.77s-9.635,2.233-1.843,12.742c0,0-8.807,1.452-2.655,12.2,0,0-5.325,4.513,1.3,12.492,0,0-3.123,7.808,12.383,18.442,0,0-.109,6.636,10.634,9.182,9.369,2.217,11.914-1.7,11.914-1.7s12.336-1.562,19.113-11.7c0,0,10.931-3.326,7.73-9.978,0,0,8.807-6.871,4.122-11.321,0,0,10.119-10.2,5.012-13.585C297.057,194.623,238.312,183.77,238.312,183.77Z" transform="translate(-214.966 -57.875)" fill="#263238" stroke="#263238" stroke-linecap="round" stroke-linejoin="round" stroke-width="1"/>
        <path id="Path_900" data-name="Path 900" d="M317.572,109.164c55.09,22.892,55.793,76.187,36.883,102.779-17.177,24.219-40.412,22.392-42.442,33.979s-66.833-5.294-69.847-13.585,10.431-7.167-14.46-40.4S249.927,81.056,317.572,109.164Z" transform="translate(-220.959 -103.147)" fill="#fff"/>
        <g id="Group_26" data-name="Group 26" clip-path="url(#clip-path-2)">
          <path id="Path_901" data-name="Path 901" d="M312.029,245.876c-2.03,11.587-66.849-5.309-69.862-13.585s10.431-7.183-14.46-40.4,22.22-110.868,89.865-82.761a93.773,93.773,0,0,1,18.738,10.275c-27.67-6.09-65.272-7.152-86.009,30.981-22.564,41.521,12.492,79.279,30.2,82.214,0,0-14.616-10.65-19.488-28.56,0,0,24.984,37.008,64.022,30.824C318.056,238.193,312.934,240.692,312.029,245.876Z" transform="translate(-220.959 -103.164)" fill="#2b5eeb" opacity="0.4"/>
        </g>
        <path id="Path_903" data-name="Path 903" d="M317.572,109.164c55.09,22.892,55.793,76.187,36.883,102.779-17.177,24.219-40.412,22.392-42.442,33.979s-66.833-5.294-69.847-13.585,10.431-7.167-14.46-40.4S249.927,81.056,317.572,109.164Z" transform="translate(-220.959 -103.147)" fill="none" stroke="#263238" stroke-linecap="round" stroke-linejoin="round" stroke-width="1"/>
        <path id="Path_904" data-name="Path 904" d="M294.365,205.544s-25.937,8.729-58.494-4.294" transform="translate(-212.586 -48.06)" fill="none" stroke="#fff" stroke-linecap="round" stroke-linejoin="round" stroke-width="1"/>
        <path id="Path_905" data-name="Path 905" d="M263.61,199.219a37.952,37.952,0,0,0,4.607-.609" transform="translate(-197.01 -49.542)" fill="none" stroke="#fff" stroke-linecap="round" stroke-linejoin="round" stroke-width="1"/>
        <path id="Path_906" data-name="Path 906" d="M237.15,193.54a112.165,112.165,0,0,0,32.792,8.448" transform="translate(-211.867 -52.389)" fill="none" stroke="#fff" stroke-linecap="round" stroke-linejoin="round" stroke-width="1"/>
        <path id="Path_907" data-name="Path 907" d="M248.51,212.038c10.806,1.7,22.267,2.03,32.792-1.218" transform="translate(-205.488 -42.686)" fill="none" stroke="#fff" stroke-linecap="round" stroke-linejoin="round" stroke-width="1"/>
        <path id="Path_908" data-name="Path 908" d="M236.65,208.7a99.943,99.943,0,0,0,13.039,3.592" transform="translate(-212.148 -43.876)" fill="none" stroke="#fff" stroke-linecap="round" stroke-linejoin="round" stroke-width="1"/>
        <path id="Path_909" data-name="Path 909" d="M269.227,220.533a96.721,96.721,0,0,1-28.107-7.573" transform="translate(-209.638 -41.484)" fill="none" stroke="#fff" stroke-linecap="round" stroke-linejoin="round" stroke-width="1"/>
        <path id="Path_910" data-name="Path 910" d="M266.527,218c-1.405.078-2.826,0-4.247,0" transform="translate(-197.756 -38.654)" fill="none" stroke="#fff" stroke-linecap="round" stroke-linejoin="round" stroke-width="1"/>
        <path id="Path_911" data-name="Path 911" d="M243.3,220.64a32.1,32.1,0,0,0,17.833,5.9" transform="translate(-208.414 -37.172)" fill="none" stroke="#fff" stroke-linecap="round" stroke-linejoin="round" stroke-width="1"/>
        <path id="Path_912" data-name="Path 912" d="M298.673,198.9s-27.7-17.8-60.1-16.084" transform="translate(-211.07 -58.479)" fill="none" stroke="#263238" stroke-linecap="round" stroke-linejoin="round" stroke-width="1"/>
        <path id="Path_913" data-name="Path 913" d="M277.5,213.756s15.881-34.619,38.054-36.961c0,0-13.429-10.79-18.66-12.414s-8.557,9.791-4.9,8.573,8.869-17.052,2.639-21.19-18.254,16.443-14.71,18.129,7.964-19.972-.718-22.423-15.116,16.224-11.04,16.6,5.481-7.808-3.794-10.837c-10.041-3.357-22.627,1.562-22.627,1.562s19.441,23.3,13.023,52.967" transform="translate(-209.29 -78.383)" fill="none" stroke="#263238" stroke-linecap="round" stroke-linejoin="round" stroke-width="1"/>
      </g>
      <g id="freepik--Character--inject-222" transform="translate(199.176 377.655)">
        <path id="Path_914" data-name="Path 914" d="M391.275,507.383c7.979-9.884,12.742-38.257,12.742-38.257A80.151,80.151,0,0,1,421.6,487.083a139.506,139.506,0,0,0,26.093-6.512,106.027,106.027,0,0,0,24.656-12.227c-16.974-24.984-45.706-67.551-63.4-80.934-6.839-5.169-28.029-10.212-28.029-10.212-4.794-4.341-15.256,0-15.256,0-56.605,14.4-108.37-4.247-108.37-4.247s-7.339-3.389-13.351,0a80.155,80.155,0,0,0-17.614,0c-12.961,1.78-27.124,16.583-32.964,23.313l-49.734,57.6s-1.671,22.673,1.843,25.671c28.107,24.094,69.55-30.653,69.55-30.653.265.109.906,47.673,23.095,72.548,0,0,15.724,7.183,76.874,1.562C375.675,517.424,391.275,507.383,391.275,507.383Z" transform="translate(-135.398 -185.43)" fill="#2b5eeb"/>
        <path id="Path_915" data-name="Path 915" d="M172.062,428.558c-9.369.828-14.288-1.421-16.162-5.419h0c13.554-15.615,29.372-34.01,30.356-35.15l1.562-1.78C194.844,401.935,200.684,426.06,172.062,428.558Z" transform="translate(-128.286 -177.139)" opacity="0.2"/>
        <path id="Path_916" data-name="Path 916" d="M195,465.208a190.879,190.879,0,0,1-5.793-37.633s6.808-8.916,8.7-18.285C197.908,409.352,206.746,444.6,195,465.208Z" transform="translate(-109.582 -164.179)" opacity="0.2"/>
        <path id="Path_917" data-name="Path 917" d="M322.654,456.176A74.547,74.547,0,0,0,310.24,444.73s.671-22.377,6.917-29.154C322.186,410.126,327.542,438.484,322.654,456.176Z" transform="translate(-41.621 -161.034)" opacity="0.2"/>
        <path id="Path_918" data-name="Path 918" d="M302.08,472.257C310.059,462.373,314.822,434,314.822,434A80.153,80.153,0,0,1,332.4,451.957" transform="translate(-46.203 -150.304)" fill="none" stroke="#263238" stroke-linecap="round" stroke-linejoin="round" stroke-width="1"/>
        <path id="Path_919" data-name="Path 919" d="M472.349,468.345c-16.974-24.984-45.706-67.551-63.4-80.934-6.839-5.169-28.029-10.212-28.029-10.212-4.794-4.341-15.256,0-15.256,0-56.605,14.4-108.37-4.247-108.37-4.247s-7.339-3.389-13.351,0a80.155,80.155,0,0,0-17.614,0c-12.961,1.78-27.124,16.583-32.964,23.313l-49.734,57.6s-1.671,22.673,1.843,25.671c28.107,24.094,69.55-30.653,69.55-30.653.265.109.906,47.673,23.095,72.548" transform="translate(-135.398 -185.43)" fill="none" stroke="#263238" stroke-linecap="round" stroke-linejoin="round" stroke-width="1"/>
        <path id="Path_920" data-name="Path 920" d="M287.27,366.33l-.75.312a2.621,2.621,0,0,0,.749-.312Z" transform="translate(-54.941 -188.302)" fill="#263238"/>
        <path id="Path_921" data-name="Path 921" d="M350.956,388.219c5.934.875,7.386-3.482,7.386-3.482s-7.386,3.482-13.929-9.916c-3.716-7.636-1.874-21.658.39-32.308,4.575-7.542,11.212-17.973,12.086-30.34,1.561-21.237-8.417-32-19.925-28.841,0,0-.843-17.942-17.036-24.375S301.19,257.8,285.575,253.9s-30.887-.5-36.477,9.6-7.5,28.451-17.036,35.556-26.234,24.2-20.956,43.332,2.28,25.671-4.685,34.713-2.717,26.843,10.572,32.433c0,0-5.637-3.014-1.655-8.057,0,0,3.123,11.992,13.538,9.806s23.641-2.92,30.387,4.466,31.4,9.369,36.961,3.748,9.869-.406,19.941,4.685,21.252.624,21.252.624-.937,4.357-3.342,5.653c2.046-.859,7.714-3.56,9.369-7.62s2.592-7.979.609-17.458c6.98-2.733,3.763-7.355,3.763-7.355,6.59,3.7,9.713-7.23,9.713-7.23C351.393,390.7,350.956,388.219,350.956,388.219Z" transform="translate(-101.778 -252.321)" fill="#263238"/>
        <path id="Path_922" data-name="Path 922" d="M332.671,402.923s-44.082,19.613-58.245,20.409S212.09,398.5,212.09,398.5l36.727-10.025c5-9.525,5.122-20.737,3.919-33.869-.375-4.076-.859-7.917-1.39-11.368-1.249-8.323-2.639-14.132-2.639-14.132l51.9,2.155a90.907,90.907,0,0,0-2.67,10.056,124.362,124.362,0,0,0-2.451,21.409c-.594,17.958,2.186,28.107,2.186,28.107Z" transform="translate(-96.735 -209.202)" fill="#fff" stroke="#263238" stroke-linecap="round" stroke-linejoin="round" stroke-width="1"/>
        <path id="Path_923" data-name="Path 923" d="M220.59,377.87s27.8,4.872,34.7,4.076,12.32,6,12.32,6" transform="translate(-91.962 -181.822)" fill="#fff" stroke="#263238" stroke-linecap="round" stroke-linejoin="round" stroke-width="1"/>
        <path id="Path_924" data-name="Path 924" d="M298.986,379s-28.326,3.123-35.181,3.279-8.885,5.028-8.885,5.028" transform="translate(-72.685 -181.188)" fill="#fff" stroke="#263238" stroke-linecap="round" stroke-linejoin="round" stroke-width="1"/>
        <path id="Path_925" data-name="Path 925" d="M283.826,336.93a124.352,124.352,0,0,0-2.452,21.408,45.031,45.031,0,0,1-14.538,8.589c-8.729,2.889-20.3-7.808-28.217-16.708-.375-4.076-.859-7.917-1.39-11.368Z" transform="translate(-82.618 -204.811)" fill="#263238"/>
        <path id="Path_926" data-name="Path 926" d="M232.034,303.08s-4.279-6.574-8.089-5.247-3.81,19.1-3.513,23.782,9.619,14.975,13.523,12.149" transform="translate(-92.115 -226.864)" fill="#fff" stroke="#263238" stroke-linecap="round" stroke-linejoin="round" stroke-width="1"/>
        <path id="Path_927" data-name="Path 927" d="M291.846,311.194s5.981-5.059,9.26-2.686-1.874,19.425-3.5,23.782-13.538,11.571-16.458,7.73" transform="translate(-57.956 -221.126)" fill="#fff" stroke="#263238" stroke-linecap="round" stroke-linejoin="round" stroke-width="1"/>
        <path id="Path_928" data-name="Path 928" d="M263.868,404.808c-15.725-2.327-31.34-29-33.229-36.508-2.092-8.354-6.7-49.563,2.28-72.142,10.1-25.375,31.23-36.087,51.827-33.057s37.742,19.378,40.1,46.6c2.092,24.2-14.21,62.336-18.629,69.738C302.25,386.085,280.467,407.244,263.868,404.808Z" transform="translate(-88.035 -246.549)" fill="#fff" stroke="#263238" stroke-linecap="round" stroke-linejoin="round" stroke-width="1"/>
        <path id="Path_929" data-name="Path 929" d="M275.775,313.386c-.422,2.92-2.077,5.091-3.685,4.841s-2.545-2.779-2.124-5.7,2.077-5.075,3.685-4.841S276.212,310.466,275.775,313.386Z" transform="translate(-64.292 -221.242)" fill="#263238"/>
        <path id="Path_930" data-name="Path 930" d="M240.806,308.242c-.422,2.9.531,5.465,2.139,5.7s3.248-1.936,3.67-4.856-.515-5.465-2.124-5.7S241.243,305.322,240.806,308.242Z" transform="translate(-80.666 -223.656)" fill="#263238"/>
        <path id="Path_931" data-name="Path 931" d="M273.673,333.262s-8.151,15.99-18.551,13.367S244.8,329.452,244.8,329.03l1.468.562a62.078,62.078,0,0,0,12.711,3.279,69.668,69.668,0,0,0,12.68.5C272.923,333.324,273.673,333.262,273.673,333.262Z" transform="translate(-78.367 -209.247)" fill="#757575"/>
        <path id="Path_932" data-name="Path 932" d="M257.034,310.43c.406,10.041-8.214,11.743-6.558,15.225A9.557,9.557,0,0,0,256,330.246" transform="translate(-75.299 -219.691)" fill="#fff" stroke="#263238" stroke-linecap="round" stroke-linejoin="round" stroke-width="1"/>
        <path id="Path_933" data-name="Path 933" d="M244.8,329s-.094,15.006,10.322,17.63,18.551-13.382,18.551-13.382" transform="translate(-78.367 -209.264)" fill="none" stroke="#263238" stroke-linecap="round" stroke-linejoin="round" stroke-width="1"/>
        <path id="Path_934" data-name="Path 934" d="M234.82,301.172s9.369-11.836,23.907-8.089" transform="translate(-83.971 -229.843)" fill="none" stroke="#263238" stroke-linecap="round" stroke-linejoin="round" stroke-width="1"/>
        <path id="Path_935" data-name="Path 935" d="M288.3,310.061s-5.575-14.054-20.55-14.631" transform="translate(-65.48 -228.114)" fill="none" stroke="#263238" stroke-linecap="round" stroke-linejoin="round" stroke-width="1"/>
        <path id="Path_936" data-name="Path 936" d="M320.254,298.75l-2.9,3.217L315.1,304.45,289.07,319.565l1.062-7.292,21.315-12.383,4.606-.593Z" transform="translate(-53.509 -226.25)" fill="#2b5eeb" stroke="#263238" stroke-linecap="round" stroke-linejoin="round" stroke-width="1"/>
        <path id="Path_937" data-name="Path 937" d="M306,305.09c-3.857-.734-2.561-5.215-2.561-5.215l8.807-1.124Z" transform="translate(-45.56 -226.25)" fill="#fff" stroke="#263238" stroke-linecap="round" stroke-linejoin="round" stroke-width="1"/>
        <path id="Path_938" data-name="Path 938" d="M310.569,298.75l-2.9,3.2a1.936,1.936,0,0,1-1.3-2.655Z" transform="translate(-43.887 -226.25)" fill="#263238"/>
        <path id="Path_939" data-name="Path 939" d="M302.22,288.4s-9.884,12.961-31.34,16.708c-26.874,4.685-41.708,27.92-41.333,37.617a82.666,82.666,0,0,1-4.607-42.77c5.34-35.665,38.616-45.862,62.8-43.379S323.66,283.31,323.66,283.31s18.161,14.148,15.615,31.98c-2.53,17.067-6.668,17.551-8.869,21.409-3.029,5.34.952,7.573-9.666,16.365,0,0,4.2-23.829-1.015-41.6S302.22,288.4,302.22,288.4Z" transform="translate(-90.082 -250.129)" fill="#263238"/>
        <path id="Path_940" data-name="Path 940" d="M301.111,273s-9.478,36.2-63.351,41.849c0,0,36.29-6.558,53.092-39.709Z" transform="translate(-82.32 -240.709)" fill="#263238"/>
        <path id="Path_941" data-name="Path 941" d="M255.193,336.607s7.4-2.639,10.259,0c0,0-4.872,7.808-11.134,5.9s-7.589-9.369-7.589-9.369S250.119,331.5,255.193,336.607Z" transform="translate(-77.283 -207.08)" fill="#bfbfbf"/>
        <path id="Path_942" data-name="Path 942" d="M272.425,333.291l-2.108,2.389A43.724,43.724,0,0,1,246,331.792l-.734-2.592a68.1,68.1,0,0,0,13.445,3.576,82.929,82.929,0,0,0,13.71.515Z" transform="translate(-78.103 -209.152)" fill="#fff"/>
        <path id="Path_943" data-name="Path 943" d="M243.31,328.4s16.927,7.886,33.292,4.9" transform="translate(-79.204 -209.601)" fill="none" stroke="#263238" stroke-linecap="round" stroke-linejoin="round" stroke-width="1"/>
        <path id="Path_944" data-name="Path 944" d="M304.565,267.24s-11.477,15.037-39.444,17.333-36.071,13.882-36.071,13.882" transform="translate(-87.211 -243.944)" fill="none" stroke="#757575" stroke-linecap="round" stroke-linejoin="round" stroke-width="1"/>
        <path id="Path_945" data-name="Path 945" d="M239.742,268c-2.592.5-6.246,1.421-7.4,4.06" transform="translate(-85.364 -243.517)" fill="none" stroke="#757575" stroke-linecap="round" stroke-linejoin="round" stroke-width="1"/>
        <path id="Path_946" data-name="Path 946" d="M301.474,259.76c-16.864,12.6-38.648,14.054-60.774,12.274" transform="translate(-80.669 -248.144)" fill="none" stroke="#757575" stroke-linecap="round" stroke-linejoin="round" stroke-width="1"/>
        <path id="Path_947" data-name="Path 947" d="M212.965,333.58a17.5,17.5,0,0,0-4.9,12.57" transform="translate(-98.999 -206.692)" fill="none" stroke="#757575" stroke-linecap="round" stroke-linejoin="round" stroke-width="1"/>
        <path id="Path_948" data-name="Path 948" d="M229.748,288.57c-7.808,4.45-14.132,12.633-14.553,21.861-.7,15.615,10.462,29.669-1.124,43.27" transform="translate(-95.623 -231.966)" fill="none" stroke="#757575" stroke-linecap="round" stroke-linejoin="round" stroke-width="1"/>
        <path id="Path_949" data-name="Path 949" d="M222.684,321.09s8.651,9.151,3.029,18.457-8.526,18.738,3,25.609" transform="translate(-91.854 -213.705)" fill="none" stroke="#757575" stroke-linecap="round" stroke-linejoin="round" stroke-width="1"/>
        <path id="Path_950" data-name="Path 950" d="M264.505,290.34a55.129,55.129,0,0,1-5.715,3.123" transform="translate(-70.512 -230.972)" fill="none" stroke="#757575" stroke-linecap="round" stroke-linejoin="round" stroke-width="1"/>
        <path id="Path_951" data-name="Path 951" d="M280.9,275.58a49.562,49.562,0,0,1-15.319,19.6" transform="translate(-66.699 -239.26)" fill="none" stroke="#757575" stroke-linecap="round" stroke-linejoin="round" stroke-width="1"/>
        <path id="Path_952" data-name="Path 952" d="M279.62,276.41s11.7,6.355,16.193,16.9-1.843,25.375,1.093,30.5" transform="translate(-58.815 -238.794)" fill="none" stroke="#757575" stroke-linecap="round" stroke-linejoin="round" stroke-width="1"/>
        <path id="Path_953" data-name="Path 953" d="M291.27,342.25a17.177,17.177,0,0,0,5.231,2.186" transform="translate(-52.273 -201.824)" fill="none" stroke="#757575" stroke-linecap="round" stroke-linejoin="round" stroke-width="1"/>
        <path id="Path_954" data-name="Path 954" d="M285.34,332.91a24.545,24.545,0,0,0,4.685,10.462" transform="translate(-55.603 -207.068)" fill="none" stroke="#757575" stroke-linecap="round" stroke-linejoin="round" stroke-width="1"/>
        <path id="Path_955" data-name="Path 955" d="M282.4,338.28s-1.093,11.9,6.5,19.769,5.372,12.773,5.372,12.773" transform="translate(-57.285 -204.053)" fill="none" stroke="#757575" stroke-linecap="round" stroke-linejoin="round" stroke-width="1"/>
        <path id="Path_956" data-name="Path 956" d="M275.285,347s4.528,12.055-2.655,16.068" transform="translate(-62.74 -199.157)" fill="none" stroke="#757575" stroke-linecap="round" stroke-linejoin="round" stroke-width="1"/>
        <path id="Path_957" data-name="Path 957" d="M285.34,274.29s17.083,3.451,19.582,10.931,0,16.084,0,16.084" transform="translate(-55.603 -239.985)" fill="none" stroke="#757575" stroke-linecap="round" stroke-linejoin="round" stroke-width="1"/>
        <path id="Path_958" data-name="Path 958" d="M148.294,497.285c-14.491-8.042-11.68-36.961-2.092-73.079,4.685-17.739,20.956-62.461,20.628-64.022a42.757,42.757,0,0,0-3.592-8.651s4.685-4.778,6.652-5.637c8.448-3.607,25.125-8.151,32.792-4.981,2.389.984,5.856,6.558,5.372,8.838s-7.324,9.775-6.668,16.958-5.575,30.887-5.4,40.334c0,1.936.109,4.372.219,7.027,0,1.687,0,31.23-11.368,46.315" transform="translate(-138.216 -203.174)" fill="#2b5eeb" stroke="#263238" stroke-linecap="round" stroke-linejoin="round" stroke-width="1"/>
        <path id="Path_959" data-name="Path 959" d="M187.356,304.511c.312,2.873,6.512,23.423,8.432,44.3a41.9,41.9,0,0,0,10.931-5.934c3.888-3.4,12.024-.687,11.7,1.561s-7.808,1.874-14.132,10.369-7.62,17.911-16.021,22.439-21.455,6.137-26.546.094-10.743-38.1-8.76-41.443a24.814,24.814,0,0,1,6.246-6.246s2.139-6.246,5.387-6.73,10.931-.64,10.931-.64a8.963,8.963,0,0,1,6.246-1.718s-2.53-24.047-4.685-32.121S184.811,280.417,187.356,304.511Z" transform="translate(-130.168 -234.744)" fill="#fff" stroke="#263238" stroke-linecap="round" stroke-linejoin="round" stroke-width="1"/>
        <path id="Path_960" data-name="Path 960" d="M179.41,307.28c6.636,3,9.572,15.615,9.572,16.521A116.367,116.367,0,0,1,184.2,336.98c-1.655,3.591-5.231,0-5.231,0s-1.093,4.685-3.607,2.639c-3.2-2.639-3.2-11.181-3.2-11.181s-.39,7.1-2.249,10.572-5.606,1.156-5.059-9.1c0,0-7.651-1.874-7.917-3.748" transform="translate(-127.702 -221.46)" fill="none" stroke="#263238" stroke-linecap="round" stroke-linejoin="round" stroke-width="1"/>
        <path id="Path_961" data-name="Path 961" d="M169.952,324.149c-1.874-4.81-9.072-9.229-9.072-9.229" transform="translate(-125.49 -217.17)" fill="none" stroke="#263238" stroke-linecap="round" stroke-linejoin="round" stroke-width="1"/>
        <path id="Path_962" data-name="Path 962" d="M172.729,334.077s3.763-10.931,2.748-13.179-7.417-8.448-7.417-8.448" transform="translate(-121.458 -218.557)" fill="none" stroke="#263238" stroke-linecap="round" stroke-linejoin="round" stroke-width="1"/>
        <path id="Path_963" data-name="Path 963" d="M183.907,325.4s-7.058,1.562-10.2,10.556" transform="translate(-118.286 -211.285)" fill="none" stroke="#263238" stroke-linecap="round" stroke-linejoin="round" stroke-width="1"/>
        <path id="Path_964" data-name="Path 964" d="M156.54,352.83s11.4,9.369,23.657,1.562" transform="translate(-127.927 -195.883)" fill="none" stroke="#263238" stroke-linecap="round" stroke-linejoin="round" stroke-width="1"/>
        <path id="Path_965" data-name="Path 965" d="M165.2,370.64a29.317,29.317,0,0,1-7,2.951" transform="translate(-126.995 -185.882)" fill="none" stroke="#263238" stroke-linecap="round" stroke-linejoin="round" stroke-width="1"/>
        <path id="Path_966" data-name="Path 966" d="M188.1,350.94a91.694,91.694,0,0,1-21.861,26.936" transform="translate(-122.48 -196.944)" fill="none" stroke="#263238" stroke-linecap="round" stroke-linejoin="round" stroke-width="1"/>
        <path id="Path_967" data-name="Path 967" d="M207.73,372.41S229.982,393.3,243,398.956" transform="translate(-99.183 -184.888)" fill="none" stroke="#263238" stroke-linecap="round" stroke-linejoin="round" stroke-width="1"/>
        <path id="Path_968" data-name="Path 968" d="M193.52,386.89a36.214,36.214,0,0,1,1.967,8.6" transform="translate(-107.162 -176.757)" fill="none" stroke="#263238" stroke-linecap="round" stroke-linejoin="round" stroke-width="1"/>
        <path id="Path_969" data-name="Path 969" d="M188.57,375.55c2,3.763,3.81,7.651,5.45,11.6" transform="translate(-109.941 -183.125)" fill="none" stroke="#263238" stroke-linecap="round" stroke-linejoin="round" stroke-width="1"/>
        <path id="Path_970" data-name="Path 970" d="M246.73,399.429s36.415.5,59.79-15.459" transform="translate(-77.283 -178.397)" fill="none" stroke="#263238" stroke-linecap="round" stroke-linejoin="round" stroke-width="1"/>
        <path id="Path_971" data-name="Path 971" d="M298.516,375.13a47.244,47.244,0,0,0-8.526,7.433" transform="translate(-52.992 -183.361)" fill="none" stroke="#263238" stroke-linecap="round" stroke-linejoin="round" stroke-width="1"/>
        <path id="Path_972" data-name="Path 972" d="M311.714,392.22a58.21,58.21,0,0,1-12.664,9.931" transform="translate(-47.905 -173.764)" fill="none" stroke="#263238" stroke-linecap="round" stroke-linejoin="round" stroke-width="1"/>
        <path id="Path_973" data-name="Path 973" d="M313.621,386a58.831,58.831,0,0,1-3.841,5.153" transform="translate(-41.88 -177.257)" fill="none" stroke="#263238" stroke-linecap="round" stroke-linejoin="round" stroke-width="1"/>
        <path id="Path_974" data-name="Path 974" d="M189.21,430.1s8.885-11.508,8.7-25.312" transform="translate(-109.582 -166.706)" fill="none" stroke="#263238" stroke-linecap="round" stroke-linejoin="round" stroke-width="1"/>
        <path id="Path_975" data-name="Path 975" d="M310.265,448.414S308.36,425.257,324.6,408.33" transform="translate(-41.646 -164.718)" fill="none" stroke="#263238" stroke-linecap="round" stroke-linejoin="round" stroke-width="1"/>
        <path id="Path_976" data-name="Path 976" d="M327.738,416.5c.781.781-13.866,13.554-17.348,19.269" transform="translate(-41.537 -160.131)" fill="none" stroke="#263238" stroke-linecap="round" stroke-linejoin="round" stroke-width="1"/>
        <path id="Path_977" data-name="Path 977" d="M219,453.17s53.295,21.174,80.9,20.737" transform="translate(-92.854 -139.54)" fill="none" stroke="#263238" stroke-linecap="round" stroke-linejoin="round" stroke-width="1"/>
        <rect id="Rectangle_39" data-name="Rectangle 39" width="10.041" height="13.367" rx="1.19" transform="translate(175.849 262.49)" fill="#bfbfbf"/>
        <path id="Path_978" data-name="Path 978" d="M259.338,435.145h-6.246a2.858,2.858,0,0,1-2.842-2.858v-9.65a2.858,2.858,0,0,1,2.842-2.858h6.246a2.842,2.842,0,0,1,2.842,2.858v9.65a2.842,2.842,0,0,1-2.842,2.858Zm-6.246-13.382a.874.874,0,0,0-.859.874v9.65a.859.859,0,0,0,.859.859h6.246a.843.843,0,0,0,.859-.859v-9.65a.859.859,0,0,0-.859-.874Z" transform="translate(-75.307 -158.289)" fill="#263238"/>
        <path id="Path_979" data-name="Path 979" d="M287.2,369.55s28.295,5.825-20.066,79.31c0,0-56.34-71.361-28.794-81.73" transform="translate(-86.255 -187.853)" fill="none" stroke="#263238" stroke-linecap="round" stroke-linejoin="round" stroke-width="1"/>
        <path id="Path_980" data-name="Path 980" d="M255.465,419.7c0,1.078-.484,1.952-1.077,1.952s-1.077-.874-1.077-1.952.484-1.952,1.077-1.952S255.465,418.624,255.465,419.7Z" transform="translate(-73.589 -159.429)" fill="#263238"/>
      </g>
    </g>
  </g>
</svg>
